<?xml version="1.0" standalone="no"?><!DOCTYPE svg PUBLIC "-//W3C//DTD SVG 1.1//EN" "http://www.w3.org/Graphics/SVG/1.1/DTD/svg11.dtd"><svg t="1583909027959" class="icon" viewBox="0 0 1024 1024" version="1.1" xmlns="http://www.w3.org/2000/svg" p-id="1686" xmlns:xlink="http://www.w3.org/1999/xlink" width="200" height="200"><defs><style type="text/css"></style></defs><path d="M964.82948741 396.52718617H434.58661136c-73.01195852 0-47.63900839-48.1568237-98.12600099-135.14979556s-131.91344987-67.31599013-197.41708642-67.31599011c-65.50363653 0-85.95734124 78.57847309-85.95734123 78.57847308v143.04647901c0 72.88250469 73.01195852 112.23646815 73.01195852 112.23646816h252.43496295l72.8825047 72.88250468s448.81641876-98.12600098 513.41387852-112.23646815c64.46800592-13.98101333 0-92.04167111 0-92.04167111z m-670.44137088 30.42164938h-134.63198023s-53.3349768-103.82196939 11.26248295-129.06546568c64.59745975-25.2434963 98.25545482 8.41449876 123.49895112 75.73048889s-0.12945383 53.3349768-0.12945384 53.33497679z m187.96695705 120.65096692c-32.49291061 0-58.90149136-26.40858075-58.90149136-58.90149136s26.40858075-58.90149136 58.90149136-58.90149136 58.90149136 26.40858075 58.90149136 58.90149136-26.40858075 58.90149136-58.90149136 58.90149136z" fill="#666666" p-id="1687"></path><path d="M441.70657185 642.48945778c-64.59745975 0-100.97398518-72.88250469-100.97398518-72.88250469s-75.73048889 70.16397431-143.04647902 134.63198024 42.07249383 162.72346075 78.5784731 199.22944c36.50597925 36.50597925 73.01195852 53.3349768 106.66995356 50.48699259 33.65799506-2.84798419 72.88250469-67.31599013 120.65096693-103.82196939 47.50955457-36.50597925 2.58907653-207.64393876-61.87892939-207.64393875z m-65.7625442 187.44914172c-63.43237531 27.83257283-99.16163161-83.36826469-99.1616316-83.36826468l95.27801678-95.27801679s7.89668347-27.83257283 37.6710637 37.6710637 29.77438025 113.14264494-33.78744888 140.97521777zM583.32905876 311.99383703L833.04549136 168.94735803s75.73048889-19.67698173 64.46800592 71.58796642l-89.71150222 88.41696394-224.4729363-16.95845136z" fill="#666666" p-id="1688"></path></svg>